<?xml version="1.0" standalone="no"?>
<!DOCTYPE svg PUBLIC "-//W3C//DTD SVG 20010904//EN"
 "http://www.w3.org/TR/2001/REC-SVG-20010904/DTD/svg10.dtd">
<svg version="1.0" xmlns="http://www.w3.org/2000/svg"
 width="486.000000pt" height="1280.000000pt" viewBox="0 0 486.000000 1280.000000"
 preserveAspectRatio="xMidYMid meet">
<g transform="translate(0.000000,1280.000000) scale(0.100000,-0.100000)"
fill="#000000" stroke="none">
<path d="M2198 12304 c-147 -7 -283 -17 -303 -24 -23 -8 -47 -27 -66 -53 -28
-39 -29 -44 -24 -111 6 -60 3 -77 -14 -111 -18 -34 -21 -57 -21 -176 0 -117 3
-144 21 -186 27 -61 27 -150 3 -683 -3 -69 -7 -215 -8 -325 -11 -631 -71
-1148 -178 -1540 -17 -60 -41 -150 -53 -200 -26 -102 -12 -56 -269 -840 -274
-833 -268 -811 -340 -1137 -8 -37 -26 -140 -41 -230 -14 -90 -30 -188 -35
-218 -12 -67 -27 -228 -41 -450 -16 -234 -16 -1783 -1 -1830 7 -20 16 -171 22
-360 29 -911 41 -1246 45 -1255 3 -5 2 204 0 465 -13 1311 -15 1946 -6 1959 8
12 30 8 138 -27 70 -23 162 -48 203 -56 420 -82 670 -101 1210 -93 416 7 627
22 865 63 188 33 212 38 307 63 56 16 83 19 102 11 l25 -9 0 -1248 c1 -686 4
-1449 7 -1695 6 -375 5 -450 -7 -464 -41 -49 -357 -149 -594 -188 -350 -58
-894 -81 -1125 -48 -41 6 -120 16 -175 22 -55 7 -132 16 -171 20 -105 13 -386
78 -484 112 -99 35 -191 80 -239 116 l-34 25 6 -69 c6 -68 16 -168 38 -394 19
-187 47 -224 269 -349 83 -47 354 -135 450 -147 14 -1 66 -9 115 -18 50 -8
122 -19 160 -25 111 -16 480 -34 595 -28 225 11 505 38 645 62 50 9 115 19
145 24 65 10 202 55 246 80 17 10 46 23 65 30 36 12 170 119 200 161 11 15 26
68 36 130 15 90 18 193 20 710 4 1009 15 2384 18 2390 10 16 15 1719 5 1845
-21 284 -55 543 -102 770 -16 83 -33 161 -35 175 -5 23 -51 188 -90 320 -9 30
-29 93 -44 140 -16 47 -29 94 -29 105 0 12 -4 25 -9 30 -5 6 -26 62 -46 125
-21 63 -51 153 -67 200 -17 47 -58 166 -93 266 -34 99 -67 189 -72 200 -6 10
-20 51 -31 89 -11 39 -41 129 -66 200 -26 72 -51 146 -55 165 -5 19 -26 89
-45 155 -45 147 -91 321 -105 395 -6 30 -17 88 -26 129 -9 41 -20 104 -25 140
-5 36 -18 123 -30 193 -13 84 -21 191 -24 315 -4 176 -9 285 -37 808 -6 116
-12 251 -14 300 -1 50 -6 155 -10 235 -7 138 -7 148 14 195 21 47 22 59 16
195 -6 117 -11 151 -26 176 -12 21 -19 50 -19 85 0 123 -29 160 -140 183 -104
21 -212 23 -522 10z"/>
<path d="M892 2450 c0 -14 2 -19 5 -12 2 6 2 18 0 25 -3 6 -5 1 -5 -13z"/>
</g>
</svg>
